/* XPM */
static char *_65a9bfa6ac14764ccf57ffcfab76d89[] = {
/* columns rows colors chars-per-pixel */
"200 50 67 1 ",
"  c #030303",
". c #050708",
"X c #06090A",
"o c #0F0F0F",
"O c #0F1111",
"+ c #131313",
"@ c #171A1A",
"# c #1B1B1B",
"$ c #1F2223",
"% c #242424",
"& c #242A2B",
"* c #2A2A2A",
"= c #2B2F30",
"- c #343434",
"; c #343B3C",
": c #3B3B3B",
"> c #3C4444",
", c #434343",
"< c #434949",
"1 c #4C4C4C",
"2 c #4A5152",
"3 c #535353",
"4 c #52595A",
"5 c #5C5C5C",
"6 c #5A6364",
"7 c #636363",
"8 c #626A6B",
"9 c #6B6B6B",
"0 c #6E7274",
"q c #747474",
"w c #717A7B",
"e c #7B7B7B",
"r c #7B8384",
"t c #7E8788",
"y c #858585",
"u c #828788",
"i c #858888",
"p c #898989",
"a c #8D9091",
"s c #949494",
"d c #9F9F9F",
"f c #9BA2A2",
"g c #9FA6A8",
"h c #A5A5A5",
"j c #AFAFAF",
"k c #B0AFAF",
"l c #ACAFB0",
"z c #ABB3B4",
"x c #B3B3B3",
"c c #B9B9B9",
"v c #BBC2C2",
"b c #C3C3C3",
"n c #C3C8C9",
"m c #CBCCCC",
"M c #D0CFCF",
"N c #D0D0CF",
"B c #CFD2D3",
"V c #D4D3D3",
"C c #D8D7D7",
"Z c #D7D9D9",
"A c #D8D9D9",
"S c #DFE0E1",
"D c #E1E2E3",
"F c #EEEEEE",
"G c #F3F3F3",
"H c #FFFFFF",
"J c None",
/* pixels */
"JJJo                                                                                                                                                                                               o%JJJ",
"JJ .;898999998998998998998998998999999999898998998998998998998998998998998998998998998998998998998998998998998998998898998998998998998998998898998998998999998998998998998998998999999998998898999<X #JJ",
"J X2fBCCAAAACCCACCCCAAAACCCCCCCCCCCCCCCAACCCAAAACCCACCCCCAAACCCCCCCCAAAACCCCCCCCAACCCCCCCCCCAAAACCCCCCCCCCCCCCCCCCCCAAZACCCACCCCAAAACCCCCCCCCAAACCCCCCCCACCCCCCCCCCCZCCCCCCCCCCCCCCCCCACACCCAAZACAz8# *J",
".o2vCMMcccccccccccccccccccccccccccccccccccccccccccccccccccccccccccccccccccccccccccccccccccccccccccccccccccccccccccccccccccccccccccccccccccccccccccccccccccccccccccccccccccccccccccbcccccccccccccnNCV0+ J",
"o;xVMnjapppppppppppppppppapppppppppppppppppppppppppipppppppapppppppppppppapppppppppppapppppppppppapppapppppppppppppppppppppppappppppppppppppppppppppppppppppppppppappppppappppppppppppppppppppppdbMVm6.O",
"+wCMbdeeeeeeyeeeeeeeeeeeeeeeeeyeeeyeeeeeeeeeeeeeeeeeeeyeeeeeeeyeeeeeyeeeeeeeeeyeeeeyeeeeeeeeeeeeeeeeeeeeeeeyeeyeeeeeyeeeeeyeeeeeyeeeeyeeeeeeyeeeeyeeeeyeeeyeyeeeeeeeeeyeeeeeeeyeeeeeyeeeeeeeeyeeescNZg& ",
"*vMndqeeeeeeeeeeeeeeeeeeeeeeeeeeeeeeeeeeeeeeeeeeeyeeeeeeeeeeeeeeeeeeeeeeeeeeeeeeeeeeeeeeeeeeeeeeeeeeeeeeeeeeeeeeeeeeeeeeeeeeeeeeeeeeeeeeeeeeeeeeeeeeeeeeeeeeeeeeeeeeeeeeeeeeeeeeeeeeeeeeeeeeeeeeeqacVV1 ",
"-Amjqqeeqeeeeqeqeeeeeeeeeeqeeqeeqeeeeeeeeeeeeeeqqeeqeqeeeeqeeeqeeeeeeqeeeeeqeqeeeqeeeeeqeeeeeeeeeeeeqeeeqeeeeeqeeeeeqeeeeeqeeeeeqeeqeeeeeeeeeqeeeeqeeqeeeeqeqeeqeeeeeeeqeeqeqeeeeeeqeqeeeeeeeeeqeq9dnF3 ",
"-Aby9qeqqqeqqqqqqqqqqqqqqqqqqqqqqqqqqqqqqqqeqqqqqqqqqqqqqqqqqqqqqqqqqqqqqqqqqqqqqqqqqqqqqqqqqqqqqqqqqqqqqqqqqqqqqqqqqqqqqqqqqqqqqqqqqqqqqqqqqqqqqqqqqqqqqqqqqqqqqqqqqqqqqqqqeqqqqqqqqqqqqqeqqqqqqqqqkF3 ",
"-Ac0qqqqq9qqqqqqq9qq9qqqqqqqqqqqqqq9qqqq9qqq9qqqqq0q9qqqqq9qqq9qqqqqqqqqqqqqqqqqqqqqqqqqqqqqqqqqqqqqqqq9qqqq9qqqqqqq9qqq0qqqqqqqqqqqqqqqq9qqqqqqqq9qqqq9qqqqqqqq9qqqqqqqqq9qqqqqqqqq9qqqqqqqq9qqqqq7hF3 ",
"-Ac99999q99999q9999qq99999q9q99999q99q99q9999q999q999q99q9999q9999q999999909q99999q999999999999qq9999q99q9999q9999q9q99q99q9q99999999q999q9q99990990q999999999q99q9q99q99990999q9q99q99999q9999q9997dF3 ",
"-Ac99999999999999999999999999999999999999999999999999999999HHHc999999999999cHHH999999HHHHHHHHHHHHHHc99999HHHc999999999999999cSSGHHHHGAbh999999999999999999999999999999999999999999999999999999999995dG3 ",
"-Ac99979979797999979999999799979979999979997799999999799999HHHc999799999799cHHH899799HHHHHHHHHHHHHHc97978HHHc999997999979979HHHHHHHHHHHHFh9797999997977999999797797999977999997799997999999797999995dF3 ",
"-Ax55799799779777777777777797797977777797779777777777779778HHHc777777777778cHHH777778HHHHHHHHHHHHHHc77977HHHx777777777777778HHHHAAASFHHHHHk779777797779777779777779777779777797777777777777777777773dF3 ",
"-Dj%-155797777577777777757777757757757777757777777777777777HHHx777777777757xHHH787775HHHx5777575787777777HHHx778777777775777HHHx77777exHHHHs77577777777577777777577775775777777777777577777777777775dF3 ",
"-Dh. @%-,33577757555575555555555755555555555555555555555555HHHx575555555555xHHH555555HHHx5757555555555555HHHx555555555555555HHHx5555755sHHHA55555555575555555555555575555555555555557557555557575751aG3 ",
"-Dh..ooo+#*-13355575555355355553555555555555555555355535535HHHk535555553553kHHH553553HHHk5555555555555555HHHx555555555555555HHHk55555555mHHHq55535555535355535555535555555555555555355555555755331:#eG3 ",
"-Dho.oooo.oo+#*-:133355553553553533333353353353333555355553HHHx553333553535kHHH553353HHHk5435353333533353HHHk353333353335333HHHx35535333yHHHh535353333555535553533533533353353353355353555331,:*#+O qH5 ",
"-Sho.ooooooooooo+#%-,,1333333533353333333333333335333333333HHHk333333333333kHHH333333HHHk3333333333333333HHHx333335333333333HHHk335333533HHHk3333533353333333333335333353333335353333331,:*%#+ooooX qH5 ",
"-ShooooooooooooooXo+###%-:,11333333333333333333313331333333HHHk333333333333kHHH333333HHHj3333333333333333HHHk333333313333333HHHk133313333HHHk33313331333331333333333333333333333131,:-*##+ooooooooo qG3 ",
"-ShoooooooooooooooooXoXoo+##%*-::11333311311313111131111111HHHj131113111111jHHH111111HHHj1313111111313111HHHk311131131113111HHHj111131119HHHd1111131113111111311311113331311,,:-*%##+oooooooooooooo qH3 ",
"-Sho.ooooooo+ooooooooooooXooo+++#%%**-:,,11111113111<111111HHHj111111111111jHHH111111HHHj11111111111111,1HHHk111111111111111HHHj11111111dHHHe1111111,1111111131111111,,::-***#++ooo.ooooooooooooooo qH5 ",
"-Sho.+oooooooooo+oooooooooooXoooXoooo###%%*-::::,,,11111111HHHHHHHHHHHHHHHHHHHH<1,,11HHHHHHHHHHHHHH<,1,,1HHHk,,1,1,,11,11,,1HHHj111,<,,5FHHF<1,111111111111,,,,::--*%$##+ooooooooooooooooo+oooo+ooX qG3 ",
"-Sho.+ooooo+oooooooooooooooooooooXooXoooXooo+###%%*=--::::,HHHHHHHHHHHHHHHHHHHH<1,,<<HHHHHHHHHHHHHH,1,,<,HHHk,,,,,,1,,,,1,,<HHHj,,,1,15DHHHh,11,,,,:,,:---**%%####+oXoooXoXoXoooooooooooooooooooooo qH5 ",
"-Sho.oooooooo+ooo+ooooooooooooooooooooooooooXoXoooo++++##%%HHHHHHHHHHHHHHHHHHHH,,,,1<HHHHHHHHHHHHHH<,1,,<HHHj<,1,1,,,,,,,,,1HHHb,,,,yjGHHHm-:---**%%%###+++ooXoXXooooooooooo+ooooooooo+oooooooooooX qG5 ",
"-Sh..o+ooooooo+oooooooooooooooo+oo+ooooooooooooooXXoooXooooHHHdO+@@###%%%%%hHHH------HHHh::::::::::::::::HHHj:::::::::::::--HHHHHHHHHHHHHc:##+oooooooooXooooooooooooooo+ooooooooooooooooooooooooooo qH3 ",
"-Shoo+ooooooooooooooo+ooooooooooooo+oooooooooooooooo+ooooooHHHdooooooXooXoodHHH+++@+@HHHd#########%###$$#HHHd###########@+#@HHHHHHHHHHHV9ooXoo+oooo+oooo+ooooooooooooo+ooooooooooooooooooo+oo+ooooo qH5 ",
"-Sho.ooo+ooooooooooooo+oooo+oooooooooo+ooooooooo+ooooooooOoHHHdoooooooooooodHHHooooooHHHdooooooooooooooooHHHdooooooooooooXooHHHMcVNVda,oooooooooooooooooooooooooooooooooooo+ooooo+ooooo+ooooooooooo qH3 ",
"-Sho.oooooooooooooo+oooo+oooooooooooo+oooooooooooo+oooooOooHHHdoooooooo+ooOdHHHo+ooooHHHdooooooooooo+ooooHHHdoooooo+o+ooOoooHHHdoooooooooooooooo+ooooooo+ooooooooooooooooooooo+ooooooooooooo+oooooo qH3 ",
"-Shooooo+oooooooooooooooooooo+oooooooooo+oooooo+oooooooooooHHHdooooooooooOodHHHOoooooHHHdoOoOooooo+ooooooHHHdoooooooooooooooHHHdoooo+oooooooooooooooooooooooooooooooooooooooo+ooooooooooooooooooooo qG3 ",
"-Shoooooooooo+oooooooooooooo+oooooooooooo+oooo+ooooooooooooHHHdOooooooooooodHHHoo+oooHHHdooooo+ooooooooooHHHd+ooooooOooooooOHHHdo+oooooooooo+ooooooo+ooooooooo+ooooooooooooooooooo+o+ooo+oooooo+ooo qH5 ",
"-Sho.ooooooooo+ooooo+ooooooooooo+oooooooooooooooooooooo+oOoHHHdoooooooooooOdHHHooooooHHHdooooooooooooo+ooHHHdo+ooooooooOooooHHHdoooooooo+oooooooooooooooooooo+ooooooo+ooo+ooooooooooooooooooooooooX qH3 ",
"-Sho.ooooo+oooooooooo+ooooooooooooooooo+ooooooooo+ooooooo+oHHHdoooooooooooodHHHooooooHHHhooooooooooooooooHHHdoooooOoooooooooHHHdoooooo+oooooooooooooooo++ooooooooooooo+oo+ooooooooooooo+oooooo+oooo qH3 ",
"-Shooooooooooooooooooo+ooooooo+ooooooooooooooo+ooooooooooooHHHdooo+o+oooooodHHHooOoooHHHdooooooo+ooooooooHHHdoOooooooooooo+oHHHdooooo+oooooooo+oooooooooooooooooooooooooooooooooooooooooooooooooooo qH5 ",
"-Dh..oooooooooooooooooooooo+ooo+ooo+ooooooo+ooooooooo+oooooHHHd+ooooooooooodHHHooooooHHHdooooooooooooooooHHHdoooooooooooooooHHHd+oooooooooo+oo+ooooooooooooooooooo+oooooooooo+ooo+oooooooo+oooooooX qG3 ",
"-Shooo+oooooooo++ooooooooooooooooooooooooooooooooooooooooooHHHdoooooooooooodHHHooOOooHHHHHHHHHHHHHHHqooooHHHHHHHHHHHHHHHooooHHHdoooooooooooooooooo+oooooooooo+ooo+oooooooooooooooo+oooooo+ooooooooo qH5 ",
"-Sho.ooooooooooooooooooooooo+ooooooo+oooooooo+oooooooooooooHHHdoo+ooooooooodHHHooooooHHHHHHHHHHHHHHH9ooooHHHHHHHHHHHHHHHooooHHHd+oooooooooooooooooooooooooooooooooooooooooo+oooooooooooooooo+oooooX qH5 ",
"-Sh.ooooooooooo+oooooooooooooooooooooooooooooooooooooooooooHHHdoooooooooooohHHHooooooHHHHHHHHHHHHHHHqooooHHHHHHHHHHHHHHHooooHHHdoooooooooooooooooooo+ooooooooooooooooooooooooooooooo+oooooooooooooo qG3 ",
"-Sho.oooooooooooooooooooooooooooooooooooooooooooooooooooooooooooo+oo+oooooooooooooooooooooooooooooooooooooooooooooXooooooooooOoo+oooooooooooooXooooXooooooooooooooooooooooooooooooo+ooooooooooooooo qG5 ",
"-Sho.ooooooooooooooooooooooooooooooooooooooooooo+O+O+O+O++@++@@+++@++#+#++@@@@@#@@##@##########@#########+#@@@#@###@@@@@++@@@+#+++@+@++o+++o++ooooooooooooooooooooooooooooooooooooooooooooo+ooooooo qH5 ",
"-Dh..ooooooooooooooooo++++++++@+@@###$##$$%%$%%%%%%%%%%%%**%*%%%**************%*%*****%***%*****************%******%*****%%%**%%%**%*%**%%%%%%%%%%#%$$##$####@@++++++++oooooooooooooXoooooooooooooo 0H3 ",
"-Dk* ooo+++#+####$$%%*****-*---=--------------------------------------------:------:-------------------------------:-----:-:---:--------------------=--------------=****%%%%$$$##+#+++ooooXooooooo.opG5 ",
"-Sme#%=------:::,,,,,,,,,,,,,,,,:,,,,,,,:,,,,,,:,,,,,,,,,,,,,,,,::,:,::,,:,::,:,,:,:,::,,,,,,,,,,:,,:,,,,::,,,,,,,:,,,>::,:,,::,,,,,,,,,,,,,,,,,,,,,,,,,,,,,,,,,,,,,,,,,,,,,,,:::-:----**%%#@@++o. 1bF3 ",
"=bCbq,1333333333333333311333313333133131331331333313331331313333333333333133333333333333331313133331332333333333133331333133333333131313113331311331331331311331131331333313133333313331111<,,,:-%:jAA1 ",
"#uCVbe55577555577755577777757557575775575777575755755757575575557557755775575755757555755755775757555755555575655575755755755575757575577757557757757575557557575757575755575775755755755777777759jNAz=.",
".>cCMbdeqqqeeqeqqqeqqqqqqqqqqqeqqqqqqqqeqqqqqqqqeqeqqqeqqeqqqqqeqeqqqeeqqqeqeqeqeeqqeqeqeqqeqqqqqqewqeeqqeeqqeqqeqqeqqeqeeqqeeeqqqwqqeqqqqqqeqqqeqeqqqqqeqqeqqeqqqqqqqqqweeqqqeqqeqqqeeeeqqeqqqqaxVCB8X#",
" +6nCVmxkkkkkkkkkkkkxkkkkkkkkkkkkkkkkjkkxkkkkkkkkkkkxkkkkkxkkjkkjkjkkkkkjjjjjjkjjjjkjjkkkkkkkkkkkkkkkkkkkkkkkkkkkkkkkkkjjjjjkkkkjjkkkkkkkkkkkkkkkkkkkkkkkkkkkkkkkjkkkxkkkkkkkkkkkkkkkkkkkkkkjkkjbNCCt# :",
"*.O8jNCCCCCCCCCCZZZZZZZZZZZZZZZCCZZZZZZZZZZZZZCCZZZZZZZZZZZZZZZCZZZZZCCCZZZZZZZZZZZZZCCCZZZZZZZZAAZZCZZZACAAZZZZZAACZZAZZZZZAAACZZZZZZZZZZZZZZZCCCCZCZZZCCZZZZZZZZZZZACCZZZZZZZZZZZZCCCCZZZZCCZZCZcr$ %J",
"JJX.>ipiyypypiypiiyypypiypypyiypiiypiyiiypiypiypyiypiypiypyiiiypyiiiypyypiypyypiypiyiiypypiiyypypyiiypiypypyiypyiiiiypyyiiyypypiypyiiiypypyiypiypyiiypiypypyiiypiiiiypiyiiypypyiyypyiiypiypiyypyia4X *JJ",
"JJJ#XX...... ...................XX......................................X ....................................... X................................................X..............................X+%1JJ"
};
