/* XPM */
static char *_6afa4f286f14dfdafc654275a492ab1[] = {
/* columns rows colors chars-per-pixel */
"380 32 16 1 ",
"  c black",
". c gray15",
"X c gray26",
"o c #585858",
"O c gray42",
"+ c gray49",
"@ c #8D8D8D",
"# c gray61",
"$ c #AAAAAA",
"% c gray72",
"& c #C5C5C5",
"* c gray82",
"= c #DDDDDD",
"- c #E9E9E9",
"; c #F4F4F4",
": c gray100",
/* pixels */
"                                                                                                                                                                                                                                                                                                                                                                                            ",
"                                                                                                                                                                                                                                                                                                                                                                                            ",
"                                                                                                                                                                                                                                                                                                                                                                                            ",
" #**;::::;*$+          #&*-:::::*%@.        ::::::::::::::#        .@&;:::=&#X        .@&;:::=&#X               ::::::::::::::#    :::;X            :::O  O:::::::::::::::::::*   ::::::::::::::#    #&*-:::::*%@.            O:::::::::::::::::::*       O$*;::;*#o                       .@&;:::=&#X  O:::::::::::::::::::*      .::::#            #&*-:::::*%@.     O:::::::::::::::::::*",
" ::::::::::::-+        ::::::::::::;#       ::::::::::::::#       @;:::::::::=       @;:::::::::=               ::::::::::::::#    ::::&            :::O  O:::::::::::::::::::*   ::::::::::::::#    ::::::::::::;#           O:::::::::::::::::::*     +-::::::::::*O                    @;:::::::::=  O:::::::::::::::::::*      @::::=            ::::::::::::;#    O:::::::::::::::::::*",
" ::::****-:::::@       ::::****=:::::%      ::::::::::::::#      %:::::::::::#      %:::::::::::#               ::::::::::::::#    :::::+           :::O  O:::::::::::::::::::*   ::::::::::::::#    ::::****=:::::%          O:::::::::::::::::::*   .&:::::***-:::::#                  %:::::::::::#  O:::::::::::::::::::*      &:::::X           ::::****=:::::%   O:::::::::::::::::::*",
" :::#     X#::::O      :::#     .@;:::#     :::#                @:::-@.   O#-o     @:::-@.   O#-o               :::#               :::::;.          :::O           :::#           :::#               :::#     .@;:::#                  :::#          .=:::=@     X$::::%                @:::-@.   O#-o           :::#             .::;&::$           :::#     .@;:::#           :::#        ",
" :::#       O:::*      :::#       X;::;     :::#                ;::=.       .      ;::=.       .                :::#               :::*::$          :::O           :::#           :::#               :::#       X;::;                  :::#          =:::%         o;:::@               ;::=.       .            :::#             @::&#::-           :::#       X;::;           :::#        ",
" :::#        %:::X     :::#        @:::O    :::#               O:::O              O:::O                         :::#               :::O:::O         :::O           :::#           :::#               :::#        @:::O                 :::#         #:::%           o;::;X             O:::O                     :::#             &::#o:::o          :::#        @:::O          :::#        ",
" :::#        o:::@     :::#        .:::#    :::#               #:::               #:::                          :::#               ::: *::-         :::O           :::#           :::#               :::#        .:::#                 :::#        X:::-             @:::%             #:::                      :::#            .:::o -::$          :::#        .:::#          :::#        ",
" :::#         :::#     :::#         :::#    :::#               #:::.              #:::.                         :::#               ::: O:::#        :::O           :::#           :::#               :::#         :::#                 :::#        $:::@              -::;.            #:::.                     :::#            @::-  %::-          :::#         :::#          :::#        ",
" :::#         :::#     :::#        X:::+    :::#               +:::@              +:::@                         :::#               :::O *:::o       :::O           :::#           :::#               :::#        X:::+                 :::#        ;::-               @:::+            +:::@                     :::#            &::%  +:::o         :::#        X:::+          :::#        ",
" :::#        X:::@     :::#        #::;.    :::#               .:::;o             .:::;o                        :::#               :::O X:::*       :::O           :::#           :::#               :::#        #::;.                 :::#       o:::$               .:::$            .:::;o                    :::#           .:::+   ;::$         :::#        #::;.          :::#        ",
" :::#        @:::o     :::#       o;::$     :::#                #:::;#             #:::;#                       :::#               :::O  #:::#      :::O           :::#           :::#               :::#       o;::$                  :::#       #:::+                =::*             #:::;#                   :::#           @::;    %::-         :::#       o;::$           :::#        ",
" :::#       .-::-      :::#     .#;::=      ::::::::::::::       &::::;#X           &::::;#X                    ::::::::::::::     :::O  .-::;X     :::O           :::#           ::::::::::::::     :::#     .#;::=                   :::#       $:::X                %::;              &::::;#X                :::#           &::%    +:::o        :::#     .#;::=            :::#        ",
" :::#      .=:::@      :::-****=::::$.      ::::::::::::::        $::::::&O          $::::::&O                  ::::::::::::::     :::O   +:::&     :::O           :::#           ::::::::::::::     :::-****=::::$.                   :::#       *:::                 #:::               $::::::&O              :::#          X:::+     ;::$        :::-****=::::$.            :::#        ",
" :::%    O#;:::&       :::::::::::=O        ::::::::::::::         o&::::::%.         o&::::::%.                ::::::::::::::     :::O    *:::+    :::O           :::#           ::::::::::::::     :::::::::::=O                     :::#       *:::                 #:::                o&::::::%.            :::#          #::;      %::-        :::::::::::=O              :::#        ",
" :::::::::::::%.       ::::::::::::&.       :::#                     X#-::::=.          X#-::::=.               :::#               :::O    X;::;.   :::O           :::#           :::#               ::::::::::::&.                    :::#       *:::                 #:::                  X#-::::=.           :::#          =::%      +:::o       ::::::::::::&.             :::#        ",
" :::::::::::*O         :::#    +&:::&       :::#                        @;:::=             @;:::=               :::#               :::O     #:::$   :::O           :::#           :::#               :::#    +&:::&                    :::#       %:::.                %::=                     @;:::=           :::#         X:::+       ;::$       :::#    +&:::&             :::#        ",
" :::*%***#@X           :::#      %:::@      :::#                         .=:::@             .=:::@              :::#               :::O      =:::o  :::O           :::#           :::#               :::#      %:::@                   :::#       #:::+                =::*                      .=:::@          :::#         #::::::::::::::;       :::#      %:::@            :::#        ",
" :::#                  :::#       -::=      :::#                          .;::*              .;::*              :::#               :::O      o:::*  ;::O           :::#           :::#               :::#       -::=                   :::#       +:::$               .:::#                       .;::*          :::#         =:::::::::::::::+      :::#       -::=            :::#        ",
" :::#                  :::#       #:::X     :::#                           %:::               %:::              :::#               :::O       $:::O *::O           :::#           :::#               :::#       #:::X                  :::#       .:::-               @:::o                        %:::          :::#        X:::=*********:::%      :::#       #:::X           :::#        ",
" :::#                  :::#       X:::@     :::#                           #:::               #:::              :::#               :::O       .-::- *::O           :::#           :::#               :::#       X:::@                  :::#        &:::+              -::-                         #:::          :::#        #:::X         =::;      :::#       X:::@           :::#        ",
" :::#                  :::#        ;::%     :::#                           $::-               $::-              :::#               :::O        +:::@*::O           :::#           :::#               :::#        ;::%                  :::#        O:::-.            #:::#                         $::-          :::#        =::=          #:::+     :::#        ;::%           :::#        ",
" :::#                  :::#        &::-     :::#                           -::%               -::%              :::#               :::O         &::-*::O           :::#           :::#               :::#        &::-                  :::#         *:::%           o;::-.                         -::%          :::#       X:::#          X:::%     :::#        &::-           :::#        ",
" :::#                  :::#        #:::.    :::#               XO         %:::O   XO         %:::O              :::#               :::O         X;::-::O           :::#           :::#               :::#        #:::.                 :::#         X;:::%         o;:::O              XO         %:::O          :::#       #:::X           =::;     :::#        #:::.          :::#        ",
" :::#                  :::#        O:::+    :::#               #:=#o   .+*:::*    #:=#o   .+*:::*               :::#               :::O          #:::::O           :::#           :::#               :::#        O:::+                 :::#          o;:::-@     X%::::@               #:=#o   .+*:::*           :::#       =::=            #:::+    :::#        O:::+          :::#        ",
" :::#                  :::#         ;::%    :::::::::::::::O   =::::::::::::=.    =::::::::::::=.               :::::::::::::::O   :::O           *::::O           :::#           :::::::::::::::O   :::#         ;::%                 :::#           o-:::::***-::::;+                =::::::::::::=.           :::#      X:::#            X:::%    :::#         ;::%          :::#        ",
" :::#                  :::#         &::-    :::::::::::::::O   %:::::::::::$.     %:::::::::::$.                :::::::::::::::O   :::O           o::::O           :::#           :::::::::::::::O   :::#         &::-                 :::#            .#;::::::::::%X                 %:::::::::::$.            :::#      #:::X             &::;    :::#         &::-          :::#        ",
" :::#                  :::#         @:::O   :::::::::::::::O    .@%=:::;*#X        .@%=:::;*#X                  :::::::::::::::O   :::O            #:::O           :::#           :::::::::::::::O   :::#         @:::O                :::#              .@%=:::=&#X                    .@%=:::;*#X              :::#      =::=              @:::+   :::#         @:::O         :::#        ",
"                                                                                                                                                                                                                                                                                                                                                                                            ",
"                                                                                                                                                                                                                                                                                                                                                                                            "
};
